<svg xmlns="http://www.w3.org/2000/svg" width="2048" height="2048" viewBox="0 0 2048 2048" version="1.1"><path d="M 1203.351 708.529 C 1203.133 709.096, 1203.078 718.321, 1203.228 729.029 L 1203.500 748.500 1224.500 748.153 C 1236.050 747.962, 1245.645 747.667, 1245.821 747.498 C 1245.998 747.329, 1246.181 738.303, 1246.229 727.441 L 1246.314 707.692 1225.030 707.596 C 1211.270 707.534, 1203.606 707.864, 1203.351 708.529 M 1257.417 707.917 C 1257.188 708.146, 1257 717.220, 1257 728.081 L 1257 747.828 1268.629 748.164 C 1275.025 748.349, 1284.868 748.348, 1290.503 748.163 L 1300.747 747.825 1300.440 741.663 C 1300.271 738.273, 1300.103 729.200, 1300.067 721.500 L 1300 707.500 1278.918 707.500 C 1267.322 707.500, 1257.647 707.688, 1257.417 707.917 M 1203.416 759.917 C 1203.187 760.146, 1203 769.258, 1203 780.167 L 1203 800 1207.750 800.081 C 1220.986 800.306, 1245.293 800.040, 1245.667 799.666 C 1246.212 799.121, 1246.230 760.897, 1245.685 760.352 C 1245.141 759.808, 1203.948 759.383, 1203.416 759.917 M 1257.417 759.917 C 1256.660 760.673, 1256.984 799.874, 1257.750 800.250 C 1258.162 800.453, 1267.838 800.433, 1279.250 800.207 L 1300 799.795 1300 779.631 L 1300 759.467 1278.917 759.484 C 1267.322 759.493, 1257.647 759.688, 1257.417 759.917 M 1019.551 1028 C 1019.410 1028.275, 1019.232 1050.325, 1019.157 1077 C 1019.021 1125.106, 1019.954 1153.418, 1022.025 1164 C 1022.617 1167.025, 1023.329 1171.300, 1023.608 1173.500 C 1023.886 1175.700, 1024.510 1178.400, 1024.995 1179.500 C 1025.479 1180.600, 1026.074 1183.075, 1026.315 1185 C 1026.935 1189.945, 1029.922 1200.319, 1031.052 1201.450 C 1031.573 1201.972, 1032 1203.408, 1032 1204.641 C 1032 1205.874, 1032.450 1207.160, 1033 1207.500 C 1033.550 1207.840, 1034 1208.991, 1034 1210.059 C 1034 1211.127, 1034.450 1212, 1035 1212 C 1035.550 1212, 1035.997 1212.787, 1035.994 1213.750 C 1035.986 1216.005, 1048.002 1240, 1049.139 1240 C 1049.613 1240, 1050 1240.590, 1050 1241.311 C 1050 1242.033, 1050.787 1243.495, 1051.750 1244.561 C 1052.713 1245.628, 1054.139 1247.737, 1054.919 1249.250 C 1055.699 1250.763, 1056.712 1252, 1057.169 1252 C 1057.626 1252, 1058 1252.621, 1058 1253.379 C 1058 1254.138, 1059.800 1256.614, 1062 1258.881 C 1064.200 1261.148, 1066 1263.426, 1066 1263.943 C 1066 1265.120, 1088.951 1288, 1090.131 1288 C 1090.607 1288, 1092.907 1289.800, 1095.243 1292 C 1097.578 1294.200, 1100.054 1296, 1100.745 1296 C 1101.435 1296, 1102 1296.374, 1102 1296.831 C 1102 1297.288, 1103.237 1298.301, 1104.750 1299.081 C 1106.263 1299.861, 1108.372 1301.287, 1109.439 1302.250 C 1110.505 1303.213, 1111.967 1304, 1112.689 1304 C 1113.410 1304, 1114 1304.450, 1114 1305 C 1114 1305.550, 1114.694 1306, 1115.542 1306 C 1116.390 1306, 1118.050 1306.900, 1119.230 1308 C 1120.411 1309.100, 1121.967 1310, 1122.689 1310 C 1123.410 1310, 1124 1310.450, 1124 1311 C 1124 1311.550, 1124.567 1312, 1125.261 1312 C 1125.955 1312, 1130.117 1313.789, 1134.511 1315.975 C 1138.905 1318.161, 1143.287 1319.961, 1144.250 1319.975 C 1145.213 1319.989, 1146 1320.450, 1146 1321 C 1146 1321.550, 1146.873 1322, 1147.941 1322 C 1149.009 1322, 1150.160 1322.450, 1150.500 1323 C 1150.840 1323.550, 1152.190 1324, 1153.500 1324 C 1154.810 1324, 1156.160 1324.450, 1156.500 1325 C 1156.840 1325.550, 1158.126 1326, 1159.359 1326 C 1160.592 1326, 1162.027 1326.378, 1162.550 1326.839 C 1163.072 1327.300, 1166.200 1328.276, 1169.500 1329.007 C 1172.800 1329.738, 1175.950 1330.657, 1176.500 1331.049 C 1177.050 1331.442, 1179.075 1332.009, 1181 1332.309 C 1182.925 1332.610, 1186.525 1333.364, 1189 1333.985 C 1194.355 1335.330, 1202.090 1336.756, 1211 1338.041 C 1220.686 1339.439, 1258.764 1341.906, 1262.368 1341.370 C 1264.091 1341.113, 1272.475 1340.474, 1281 1339.950 C 1296.291 1339.010, 1305.229 1338.029, 1316 1336.110 C 1319.025 1335.571, 1323.648 1334.816, 1326.273 1334.432 C 1328.898 1334.049, 1331.287 1333.344, 1331.582 1332.867 C 1331.877 1332.390, 1333.640 1332, 1335.500 1332 C 1337.360 1332, 1339.160 1331.550, 1339.500 1331 C 1339.840 1330.450, 1341.190 1330, 1342.500 1330 C 1343.810 1330, 1345.160 1329.550, 1345.500 1329 C 1345.840 1328.450, 1347.640 1328, 1349.500 1328 C 1351.360 1328, 1353.160 1327.550, 1353.500 1327 C 1353.840 1326.450, 1355.190 1326, 1356.500 1326 C 1357.810 1326, 1359.160 1325.550, 1359.500 1325 C 1359.840 1324.450, 1360.991 1324, 1362.059 1324 C 1363.127 1324, 1364 1323.550, 1364 1323 C 1364 1322.450, 1365.098 1322, 1366.441 1322 C 1367.784 1322, 1369.160 1321.550, 1369.500 1321 C 1369.840 1320.450, 1370.991 1320, 1372.059 1320 C 1373.127 1320, 1374 1319.550, 1374 1319 C 1374 1318.450, 1374.900 1318, 1376 1318 C 1377.100 1318, 1378 1317.550, 1378 1317 C 1378 1316.450, 1378.900 1316, 1380 1316 C 1381.100 1316, 1382 1315.550, 1382 1315 C 1382 1314.450, 1382.900 1314, 1384 1314 C 1385.100 1314, 1386 1313.550, 1386 1313 C 1386 1312.450, 1386.900 1312, 1388 1312 C 1389.100 1312, 1390 1311.550, 1390 1311 C 1390 1310.450, 1390.900 1310, 1392 1310 C 1393.100 1310, 1394 1309.550, 1394 1309 C 1394 1308.450, 1394.590 1308, 1395.311 1308 C 1396.033 1308, 1397.589 1307.100, 1398.770 1306 C 1399.950 1304.900, 1401.610 1304, 1402.458 1304 C 1403.306 1304, 1404 1303.550, 1404 1303 C 1404 1302.450, 1404.608 1302, 1405.352 1302 C 1406.095 1302, 1408.116 1300.650, 1409.843 1299 C 1411.569 1297.350, 1413.369 1296, 1413.843 1296 C 1414.316 1296, 1416.116 1294.650, 1417.843 1293 C 1419.569 1291.350, 1421.375 1290, 1421.856 1290 C 1423.100 1290, 1452 1261.244, 1452 1260.006 C 1452 1259.443, 1453.350 1257.569, 1455 1255.843 C 1456.650 1254.116, 1458 1252.194, 1458 1251.572 C 1458 1250.950, 1458.900 1249.793, 1460 1249 C 1461.100 1248.207, 1462 1246.758, 1462 1245.779 C 1462 1244.801, 1462.374 1244, 1462.831 1244 C 1463.288 1244, 1464.281 1242.763, 1465.038 1241.250 C 1465.795 1239.737, 1467.043 1237.737, 1467.812 1236.805 C 1470.082 1234.054, 1476 1221.768, 1476 1219.807 C 1476 1218.813, 1476.450 1218, 1477 1218 C 1477.550 1218, 1478 1217.100, 1478 1216 C 1478 1214.900, 1478.450 1214, 1479 1214 C 1479.550 1214, 1480 1213.127, 1480 1212.059 C 1480 1210.991, 1480.450 1209.840, 1481 1209.500 C 1481.550 1209.160, 1482 1207.810, 1482 1206.500 C 1482 1205.190, 1482.450 1203.840, 1483 1203.500 C 1483.550 1203.160, 1484 1201.810, 1484 1200.500 C 1484 1199.190, 1484.450 1197.840, 1485 1197.500 C 1485.550 1197.160, 1486 1195.810, 1486 1194.500 C 1486 1193.190, 1486.402 1191.869, 1486.894 1191.565 C 1487.386 1191.261, 1488.038 1189.322, 1488.344 1187.256 C 1488.649 1185.190, 1489.353 1181.250, 1489.909 1178.500 C 1490.465 1175.750, 1491.387 1170.645, 1491.959 1167.156 C 1492.530 1163.667, 1493.214 1160.463, 1493.478 1160.035 C 1493.743 1159.608, 1493.987 1129.616, 1494.022 1093.386 L 1494.084 1027.515 1413.130 1027.508 L 1332.176 1027.500 1331.708 1031 C 1331.450 1032.925, 1331.398 1053.400, 1331.592 1076.500 C 1331.788 1099.747, 1331.496 1123.635, 1330.940 1130 C 1329.907 1141.809, 1328.261 1150.772, 1326.817 1152.450 C 1326.368 1152.973, 1326 1154.147, 1326 1155.060 C 1326 1157.546, 1319.888 1169.076, 1316.755 1172.500 C 1315.245 1174.150, 1314.007 1175.858, 1314.005 1176.295 C 1313.999 1177.330, 1309.330 1181.999, 1308.295 1182.005 C 1307.858 1182.007, 1306.150 1183.245, 1304.500 1184.755 C 1301.281 1187.701, 1289.602 1194, 1287.360 1194 C 1286.612 1194, 1286 1194.401, 1286 1194.891 C 1286 1195.380, 1284.537 1196.028, 1282.750 1196.330 C 1264.251 1199.454, 1263.244 1199.523, 1250.775 1198.518 C 1243.830 1197.958, 1237.815 1197.162, 1237.408 1196.750 C 1237 1196.338, 1235.643 1196, 1234.392 1196 C 1233.141 1196, 1231.840 1195.550, 1231.500 1195 C 1231.160 1194.450, 1230.051 1194, 1229.035 1194 C 1227.039 1194, 1218.712 1189.978, 1218.167 1188.750 C 1217.983 1188.338, 1217.083 1187.993, 1216.167 1187.984 C 1215.250 1187.975, 1210.528 1183.975, 1205.673 1179.094 C 1199.440 1172.829, 1195.840 1168.222, 1193.423 1163.418 C 1191.540 1159.676, 1190 1156.026, 1190 1155.307 C 1190 1154.588, 1189.550 1154, 1189 1154 C 1188.450 1154, 1188 1152.902, 1188 1151.559 C 1188 1150.216, 1187.550 1148.840, 1187 1148.500 C 1186.450 1148.160, 1186 1146.754, 1186 1145.375 C 1186 1143.997, 1185.528 1141.987, 1184.951 1140.909 C 1184.256 1139.610, 1183.902 1120.257, 1183.900 1083.475 L 1183.897 1028 1181.199 1027.988 C 1100.526 1027.615, 1019.746 1027.621, 1019.551 1028" stroke="none" fill="#16952a" fill-rule="evenodd"/><path d="M 483.470 534.227 C 483.204 534.927, 483.102 599.625, 483.243 678 L 483.500 820.500 563 820.500 L 642.500 820.500 642.756 742.875 L 643.012 665.249 703.256 665.134 C 751.589 665.041, 766.070 665.321, 776.500 666.549 C 795.249 668.757, 797.393 669.104, 798.450 670.102 C 798.972 670.596, 800.254 671, 801.298 671 C 802.341 671, 806.968 672.843, 811.579 675.096 C 823.366 680.854, 835.012 691.511, 841.817 702.765 C 843.567 705.661, 845 708.253, 845 708.526 C 845 708.799, 845.841 710.929, 846.869 713.261 C 851.828 724.505, 852.135 728.335, 852.078 778.114 C 852.036 815.060, 852.209 819.866, 853.597 820.399 C 854.459 820.729, 865.958 821, 879.151 821 L 903.139 821 909.743 815.250 C 913.375 812.087, 918.856 807.225, 921.923 804.444 C 927.564 799.329, 947.504 782.434, 955.494 776 C 957.885 774.075, 963.744 769.125, 968.516 765 C 973.287 760.875, 979.285 755.776, 981.845 753.670 C 984.405 751.563, 989.355 747.082, 992.845 743.710 L 999.190 737.581 998.638 725.040 C 997.896 708.188, 995.050 689.568, 991.143 676 C 990.589 674.075, 989.842 671.375, 989.484 670 C 989.126 668.625, 988.421 666.487, 987.917 665.250 C 987.412 664.013, 986.607 661.987, 986.127 660.750 C 983.517 654.025, 975.112 636.531, 971.353 630 C 959.201 608.883, 935.734 584.294, 913.305 569.176 C 909.898 566.879, 906.852 565, 906.537 565 C 906.222 565, 903.159 563.311, 899.732 561.247 C 893.793 557.669, 882.357 551.891, 877 549.761 C 875.625 549.214, 873.719 548.369, 872.764 547.883 C 871.809 547.397, 870.340 547, 869.500 547 C 868.660 547, 866.966 546.480, 865.736 545.844 C 860.852 543.319, 859.937 543, 857.573 543 C 856.223 543, 854.840 542.550, 854.500 542 C 854.160 541.450, 852.649 541, 851.141 541 C 849.633 541, 847.973 540.596, 847.450 540.102 C 846.928 539.609, 844.700 538.951, 842.500 538.642 C 840.300 538.332, 835.800 537.607, 832.500 537.032 C 829.200 536.456, 823.125 535.482, 819 534.866 C 807.353 533.129, 484.123 532.513, 483.470 534.227 M 1213.750 707.740 C 1217.188 707.936, 1222.813 707.936, 1226.250 707.740 C 1229.688 707.545, 1226.875 707.385, 1220 707.385 C 1213.125 707.385, 1210.313 707.545, 1213.750 707.740 M 1267.750 707.740 C 1271.188 707.936, 1276.813 707.936, 1280.250 707.740 C 1283.688 707.545, 1280.875 707.385, 1274 707.385 C 1267.125 707.385, 1264.313 707.545, 1267.750 707.740 M 1300.397 722 C 1300.397 729.975, 1300.553 733.237, 1300.743 729.250 C 1300.932 725.263, 1300.932 718.737, 1300.743 714.750 C 1300.553 710.763, 1300.397 714.025, 1300.397 722 M 1220.299 748.745 C 1225.139 748.929, 1232.789 748.928, 1237.299 748.743 C 1241.810 748.558, 1237.850 748.408, 1228.500 748.409 C 1219.150 748.410, 1215.460 748.562, 1220.299 748.745 M 1220.750 759.743 C 1224.737 759.932, 1231.263 759.932, 1235.250 759.743 C 1239.237 759.553, 1235.975 759.397, 1228 759.397 C 1220.025 759.397, 1216.763 759.553, 1220.750 759.743 M 1300.227 779.727 L 1300 799.955 1281.750 800.251 L 1263.500 800.548 1281.781 800.774 C 1295.875 800.948, 1300.175 800.707, 1300.554 799.721 C 1300.824 799.017, 1300.912 789.679, 1300.749 778.971 L 1300.454 759.500 1300.227 779.727 M 1246.409 781.500 C 1246.408 790.850, 1246.558 794.810, 1246.743 790.299 C 1246.928 785.789, 1246.929 778.139, 1246.745 773.299 C 1246.562 768.460, 1246.410 772.150, 1246.409 781.500 M 1222.250 800.742 C 1225.963 800.934, 1232.037 800.934, 1235.750 800.742 C 1239.463 800.549, 1236.425 800.392, 1229 800.392 C 1221.575 800.392, 1218.537 800.549, 1222.250 800.742 M 912 866.002 C 910.625 866.474, 907.475 867.386, 905 868.028 C 902.525 868.670, 899.600 869.684, 898.500 870.281 C 897.400 870.879, 895.216 872.016, 893.647 872.808 C 888.926 875.193, 880.422 884.439, 877.548 890.312 C 874.089 897.381, 874.385 901.128, 878.500 902.365 C 880.150 902.861, 882.400 903.595, 883.500 903.995 C 889.484 906.173, 893.020 907, 896.346 907 C 899.259 907, 900.238 906.520, 900.931 904.750 C 901.881 902.324, 908.102 896.279, 911.736 894.249 C 912.999 893.544, 917.421 893, 921.892 893 C 931.155 893, 936.251 895.152, 941.506 901.283 C 944.747 905.065, 946.719 911.681, 945.091 913.309 C 944.620 913.780, 937.162 914.308, 928.519 914.481 C 919.876 914.654, 912.381 915.219, 911.864 915.736 C 911.347 916.253, 911.053 921.137, 911.212 926.588 L 911.500 936.500 929.348 936.773 C 945.084 937.015, 947.125 937.233, 946.594 938.616 C 946.262 939.480, 945.726 941.381, 945.402 942.843 C 943.724 950.404, 937.886 957.353, 931.278 959.654 C 926.626 961.274, 919.037 961.379, 915.297 959.875 C 906.964 956.525, 904.697 954.663, 901.500 948.540 C 898.887 943.536, 896.830 942.248, 893.815 943.730 C 892.542 944.356, 889.925 945.339, 888 945.914 C 874.604 949.920, 873.511 950.472, 873.172 953.404 C 872.991 954.966, 873.329 956.729, 873.922 957.322 C 874.515 957.915, 875 959.016, 875 959.770 C 875 961.843, 880.448 969.330, 885.600 974.337 C 890.297 978.903, 899 983.699, 907 986.132 C 912.851 987.911, 932.174 987.886, 938.061 986.092 C 944.242 984.208, 952.554 980.242, 954.019 978.477 C 954.693 977.665, 955.823 977, 956.530 977 C 958.253 977, 965.989 968.269, 968.575 963.404 C 969.717 961.257, 971.250 958.375, 971.982 957 C 974.585 952.109, 975 951.002, 975 948.948 C 975 947.804, 975.508 945.920, 976.128 944.761 C 977.581 942.045, 977.491 908.091, 976.027 906.627 C 975.462 906.062, 975 904.625, 975 903.434 C 975 898.963, 967.797 886.772, 961.429 880.467 C 955.396 874.492, 946.503 869, 942.863 869 C 941.903 869, 940.869 868.598, 940.565 868.106 C 939.338 866.120, 916.548 864.442, 912 866.002 M 1130.500 866 C 1129.400 866.473, 1126.806 866.891, 1124.736 866.930 C 1122.666 866.968, 1120.079 867.450, 1118.986 868 C 1117.894 868.550, 1116.106 869.450, 1115.014 870 C 1113.921 870.550, 1112.459 871.004, 1111.764 871.010 C 1109.615 871.026, 1097.353 880.798, 1093.233 885.777 C 1089.073 890.804, 1084.508 899.462, 1082.727 905.704 C 1081.116 911.349, 1080.626 938.669, 1082.049 943.500 C 1088.439 965.187, 1100.237 977.835, 1121.665 985.971 C 1125.725 987.512, 1150.793 987.607, 1152.314 986.086 C 1152.911 985.489, 1154.147 985, 1155.060 985 C 1157.651 985, 1168.636 979.003, 1173.199 975.098 C 1178.461 970.593, 1186.986 957.662, 1186.335 955.171 C 1186.016 953.953, 1184.146 952.857, 1180.862 951.962 C 1178.118 951.215, 1175.650 950.243, 1175.378 949.802 C 1175.105 949.361, 1173.810 949, 1172.500 949 C 1171.190 949, 1169.840 948.550, 1169.500 948 C 1169.160 947.450, 1167.487 947, 1165.782 947 C 1163.403 947, 1161.602 948.104, 1158.036 951.750 C 1153.267 956.626, 1151.339 957.808, 1144.625 959.971 C 1139.975 961.470, 1130.152 959.833, 1125.846 956.843 C 1124.386 955.829, 1122.811 954.972, 1122.346 954.938 C 1121.290 954.861, 1115 946.323, 1115 944.968 C 1115 944.421, 1114.594 943.191, 1114.097 942.236 C 1110.995 936.268, 1110.234 922.856, 1112.467 913.500 C 1114.326 905.705, 1120.357 897.964, 1127.246 894.527 C 1130.576 892.866, 1142.834 892.417, 1145.764 893.849 C 1152.189 896.989, 1153.964 898.395, 1157.821 903.396 C 1161.791 908.545, 1165.037 910.367, 1166.378 908.198 C 1166.650 907.757, 1169.180 906.768, 1172 906 C 1174.820 905.232, 1177.350 904.243, 1177.622 903.802 C 1177.895 903.361, 1179.167 903, 1180.448 903 C 1181.730 903, 1183.710 902.212, 1184.850 901.250 L 1186.921 899.500 1183.840 893.224 C 1178.751 882.857, 1168.972 873.363, 1160 870.079 C 1158.075 869.375, 1155.600 868.443, 1154.500 868.009 C 1147.747 865.346, 1134.586 864.244, 1130.500 866 M 473.667 867.667 C 472.469 868.864, 472.881 983.809, 474.086 984.553 C 475.729 985.568, 495.220 986.369, 499.365 985.591 L 503 984.909 503 938.955 L 503 893 524 893 L 545 893 545 938.300 C 545 972.200, 545.302 983.902, 546.200 984.800 C 547.563 986.163, 571.663 986.501, 573.733 985.186 C 574.684 984.582, 574.990 971.253, 575.075 926.755 C 575.135 895.048, 574.891 868.633, 574.533 868.053 C 573.807 866.879, 474.833 866.500, 473.667 867.667 M 591.667 867.667 C 591.300 868.033, 591 894.268, 591 925.967 C 591 969.459, 591.294 983.894, 592.200 984.800 C 594.031 986.631, 619.377 986.455, 620.917 984.600 C 621.771 983.571, 622.002 971.255, 621.789 938.100 L 621.500 892.999 641.250 893 L 661 893 661.012 917.250 C 661.039 971.815, 661.397 984.009, 663 985.022 C 664.979 986.272, 687.148 986.274, 690.435 985.025 L 693 984.050 693 926.725 C 693 883.472, 692.705 869.105, 691.800 868.200 C 690.899 867.299, 678.348 867, 641.467 867 C 614.443 867, 592.033 867.300, 591.667 867.667 M 701.667 867.667 C 700.642 868.692, 700.877 872.806, 702 873.500 C 702.550 873.840, 703 874.771, 703 875.570 C 703 876.368, 703.953 879.154, 705.118 881.761 C 710.359 893.491, 711 895.032, 711 895.895 C 711 896.399, 711.964 898.766, 713.142 901.155 C 714.320 903.545, 715.613 906.400, 716.015 907.500 C 716.418 908.600, 717.657 911.525, 718.769 914 C 719.882 916.475, 721.514 920.188, 722.396 922.250 C 726.543 931.945, 727.257 933.633, 728 935.500 C 729.605 939.533, 732.306 945.654, 735.199 951.815 C 736.830 955.288, 737.926 958.750, 737.635 959.509 C 736.620 962.153, 729.621 963.399, 722.451 962.210 C 718.824 961.609, 715.214 961.364, 714.428 961.666 C 713.312 962.094, 713 964.585, 713 973.072 C 713 985.694, 712.836 985.479, 723.852 987.246 C 734.798 989.001, 744.925 988.099, 751.754 984.761 C 758.372 981.526, 769 969.855, 769 965.823 C 769 965.301, 770.394 961.865, 772.098 958.187 C 773.801 954.509, 775.544 950.600, 775.971 949.500 C 776.398 948.400, 777.761 945.250, 779 942.500 C 780.239 939.750, 781.602 936.600, 782.027 935.500 C 782.453 934.400, 783.746 931.367, 784.900 928.761 C 786.055 926.154, 787 923.613, 787 923.112 C 787 922.612, 788.350 919.637, 790 916.500 C 791.650 913.363, 793 910.181, 793 909.429 C 793 908.676, 793.900 906.458, 795 904.500 C 796.100 902.542, 797 900.475, 797 899.907 C 797 899.339, 798.394 895.865, 800.098 892.187 C 801.801 888.509, 803.541 884.600, 803.964 883.500 C 804.387 882.400, 805.197 880.375, 805.765 879 C 810.897 866.579, 811.345 867, 793 867 C 779.534 867, 777.878 867.186, 777.378 868.750 C 776.835 870.449, 775.998 872.598, 774.066 877.250 C 773.552 878.487, 772.149 882.425, 770.949 886 C 769.749 889.575, 768.369 892.928, 767.884 893.450 C 767.398 893.973, 767 895.345, 767 896.500 C 767 897.655, 766.642 899.027, 766.204 899.550 C 765.766 900.072, 764.837 902.300, 764.138 904.500 C 762.809 908.685, 761.374 912.306, 759.883 915.236 C 759.397 916.191, 759 917.852, 759 918.927 C 759 920.002, 758.550 921.160, 758 921.500 C 757.450 921.840, 757 923.216, 757 924.559 C 757 929.177, 754.241 927.179, 752.429 921.250 C 751.463 918.087, 750.377 915.050, 750.016 914.500 C 749.655 913.950, 748.751 911.475, 748.006 909 C 747.262 906.525, 746.280 904.072, 745.826 903.550 C 745.372 903.027, 745 901.875, 745 900.988 C 745 900.101, 744.100 897.513, 743 895.236 C 741.900 892.959, 741 890.426, 741 889.607 C 741 888.788, 740.639 887.895, 740.198 887.622 C 739.757 887.350, 738.768 884.820, 738 882 C 737.232 879.180, 736.243 876.650, 735.802 876.378 C 735.361 876.105, 735 874.993, 735 873.906 C 735 872.819, 734.273 870.820, 733.385 869.465 C 731.790 867.030, 731.592 867, 717.052 867 C 708.957 867, 702.033 867.300, 701.667 867.667 M 987.693 867.640 C 987.312 868.022, 987 894.369, 987 926.191 L 987 984.050 989.565 985.025 C 993.335 986.458, 1014.322 986.278, 1015.800 984.800 C 1016.665 983.935, 1017 977.089, 1017 960.300 L 1017 937 1020.403 937 C 1023.411 937, 1024.252 937.650, 1027.653 942.604 C 1029.769 945.686, 1031.990 949.058, 1032.589 950.097 C 1033.188 951.136, 1034.425 952.812, 1035.339 953.822 C 1036.252 954.831, 1037 956.037, 1037 956.500 C 1037 956.963, 1037.748 958.169, 1038.661 959.178 C 1039.575 960.188, 1040.812 961.855, 1041.411 962.882 C 1042.010 963.910, 1044.750 968.082, 1047.500 972.154 C 1050.250 976.226, 1052.994 980.444, 1053.598 981.528 C 1055.736 985.367, 1058.784 985.989, 1074.703 985.836 C 1090.979 985.679, 1092.101 985.301, 1089.704 980.781 C 1089.039 979.526, 1086.684 976.025, 1084.471 973 C 1082.257 969.975, 1079.783 966.547, 1078.973 965.382 C 1078.163 964.217, 1075.025 959.765, 1072 955.490 C 1068.975 951.215, 1065.825 946.719, 1065 945.500 C 1063.182 942.813, 1054.215 930.142, 1049.899 924.161 L 1046.767 919.822 1050.293 916.161 C 1052.232 914.148, 1055.321 910.608, 1057.159 908.296 C 1058.997 905.984, 1065.225 898.420, 1071 891.488 C 1076.775 884.555, 1083.205 876.823, 1085.288 874.307 C 1087.372 871.790, 1088.910 869.229, 1088.706 868.615 C 1088.457 867.868, 1082.716 867.410, 1071.291 867.227 L 1054.248 866.954 1051.374 870.471 C 1044.237 879.204, 1043 880.809, 1043 881.334 C 1043 882.149, 1024.273 907.010, 1021.219 910.250 C 1019.793 911.763, 1018.268 913, 1017.832 913 C 1017.395 913, 1016.917 902.763, 1016.769 890.250 L 1016.500 867.500 1002.443 867.224 C 994.712 867.072, 988.074 867.259, 987.693 867.640 M 1191.676 867.657 C 1190.837 868.496, 1190.769 982.236, 1191.607 984.418 C 1192.115 985.742, 1194.223 986, 1204.542 986 C 1211.322 986, 1218.037 985.556, 1219.463 985.014 L 1222.057 984.028 1221.968 938.764 L 1221.880 893.500 1238.940 893.226 L 1256 892.953 1256 937.905 C 1256 977.437, 1256.189 983.047, 1257.571 984.429 C 1258.837 985.694, 1261.614 985.997, 1271.821 985.985 C 1278.795 985.976, 1285.066 985.610, 1285.758 985.171 C 1286.750 984.541, 1286.962 972.022, 1286.758 925.936 L 1286.500 867.500 1239.426 867.240 C 1213.536 867.097, 1192.048 867.285, 1191.676 867.657 M 1301.667 867.667 C 1301.300 868.033, 1301 894.303, 1301 926.044 C 1301 972.268, 1301.260 983.971, 1302.304 984.837 C 1303.837 986.110, 1375.765 986.458, 1377.720 985.203 C 1379.551 984.026, 1380.689 962.536, 1379.026 960.531 C 1377.951 959.236, 1374.150 959, 1354.378 959 L 1331 959 1331 946.914 L 1331 934.829 1352.417 935.164 C 1364.196 935.349, 1374.052 935.275, 1374.320 935 C 1375.169 934.127, 1375.481 913.554, 1374.664 912.250 C 1374.078 911.313, 1368.510 911, 1352.441 911 L 1331 911 1331 902.018 L 1331 893.036 1355.250 892.768 L 1379.500 892.500 1379.757 881.111 C 1379.923 873.753, 1379.615 869.241, 1378.885 868.361 C 1377.968 867.257, 1370.635 867, 1340.044 867 C 1319.303 867, 1302.033 867.300, 1301.667 867.667 M 1390.058 868.891 C 1389.350 870.215, 1389 889.552, 1389 927.399 C 1389 982.266, 1389.057 983.960, 1390.934 984.965 C 1393.718 986.454, 1417.285 986.315, 1418.800 984.800 C 1419.635 983.965, 1420 978.644, 1420 967.300 L 1420 951 1434.679 951 C 1443.048 951, 1450.893 950.504, 1452.929 949.845 C 1468.483 944.816, 1478.215 935.060, 1481.204 921.500 C 1483.013 913.289, 1483.242 907.569, 1482.039 900.634 C 1480.080 889.340, 1477.979 884.971, 1471.500 878.716 C 1467.041 874.412, 1464.725 872.964, 1457.500 869.966 C 1453.025 868.109, 1447.242 867.703, 1419.808 867.317 C 1392.035 866.927, 1391.083 866.977, 1390.058 868.891 M 1485.663 867.740 C 1484.878 869.017, 1484.505 891.838, 1485.257 892.590 C 1485.644 892.978, 1492.495 893.199, 1500.481 893.082 L 1515 892.869 1515 938.312 C 1515 976.761, 1515.223 983.940, 1516.448 984.957 C 1518.192 986.404, 1541.813 986.191, 1543.750 984.711 C 1544.718 983.971, 1545 973.496, 1545 938.341 L 1545 892.927 1560.108 893.055 C 1568.418 893.125, 1575.633 892.767, 1576.142 892.258 C 1576.650 891.750, 1576.939 885.971, 1576.783 879.417 L 1576.500 867.500 1531.315 867.240 C 1506.464 867.097, 1485.920 867.322, 1485.663 867.740 M 1419.995 899.181 C 1419.992 902.657, 1419.699 909.888, 1419.344 915.250 L 1418.698 925 1429.819 925 C 1439.269 925, 1441.502 924.684, 1444.686 922.896 C 1449.177 920.373, 1450.459 918.747, 1451.990 913.638 C 1454.296 905.944, 1449.059 896.120, 1441.793 894.510 C 1439.982 894.108, 1434.338 893.574, 1429.250 893.321 L 1420 892.863 1419.995 899.181 M 807.510 917.254 C 806.316 917.923, 806.003 920.232, 806.015 928.300 C 806.024 933.910, 806.392 939.070, 806.834 939.766 C 807.458 940.749, 813.790 940.973, 835.069 940.766 L 862.500 940.500 862.792 930.500 C 863.256 914.648, 866.423 916.291, 835.528 916.355 C 820.949 916.385, 808.340 916.790, 807.510 917.254 M 1062.250 1027.742 C 1065.963 1027.934, 1072.037 1027.934, 1075.750 1027.742 C 1079.463 1027.549, 1076.425 1027.392, 1069 1027.392 C 1061.575 1027.392, 1058.537 1027.549, 1062.250 1027.742 M 1090.250 1027.742 C 1093.963 1027.934, 1100.037 1027.934, 1103.750 1027.742 C 1107.463 1027.549, 1104.425 1027.392, 1097 1027.392 C 1089.575 1027.392, 1086.537 1027.549, 1090.250 1027.742 M 1151.750 1027.744 C 1156.287 1027.929, 1163.713 1027.929, 1168.250 1027.744 C 1172.787 1027.559, 1169.075 1027.407, 1160 1027.407 C 1150.925 1027.407, 1147.213 1027.559, 1151.750 1027.744 M 1341.750 1027.744 C 1346.287 1027.929, 1353.713 1027.929, 1358.250 1027.744 C 1362.787 1027.559, 1359.075 1027.407, 1350 1027.407 C 1340.925 1027.407, 1337.213 1027.559, 1341.750 1027.744 M 1471.250 1027.739 C 1474.412 1027.937, 1479.588 1027.937, 1482.750 1027.739 C 1485.912 1027.541, 1483.325 1027.378, 1477 1027.378 C 1470.675 1027.378, 1468.088 1027.541, 1471.250 1027.739 M 1494.471 1093 C 1494.471 1127.925, 1494.596 1142.212, 1494.749 1124.750 C 1494.903 1107.287, 1494.903 1078.712, 1494.749 1061.250 C 1494.596 1043.787, 1494.471 1058.075, 1494.471 1093 M 1331.385 1102 C 1331.385 1108.875, 1331.545 1111.688, 1331.740 1108.250 C 1331.936 1104.813, 1331.936 1099.188, 1331.740 1095.750 C 1331.545 1092.313, 1331.385 1095.125, 1331.385 1102 M 994.382 1135.500 C 994.384 1142.100, 994.546 1144.670, 994.741 1141.211 C 994.937 1137.752, 994.936 1132.352, 994.738 1129.211 C 994.540 1126.070, 994.380 1128.900, 994.382 1135.500 M 1019.374 1142.500 C 1019.376 1148.550, 1019.541 1150.896, 1019.740 1147.713 C 1019.939 1144.531, 1019.937 1139.581, 1019.736 1136.713 C 1019.535 1133.846, 1019.372 1136.450, 1019.374 1142.500 M 673.750 1197.749 C 690.388 1197.903, 717.613 1197.903, 734.250 1197.749 C 750.888 1197.596, 737.275 1197.470, 704 1197.470 C 670.725 1197.470, 657.113 1197.596, 673.750 1197.749 M 1435 1277.895 C 1428.675 1284.230, 1425.750 1287.554, 1428.500 1285.282 C 1434.571 1280.266, 1447.563 1267.189, 1446.945 1266.717 C 1446.700 1266.530, 1441.325 1271.560, 1435 1277.895" stroke="none" fill="#0453bb" fill-rule="evenodd"/><path d="M 1246.500 549.622 C 1235.342 559.574, 1229.124 565.034, 1225.500 568.061 C 1223.300 569.899, 1217.861 574.799, 1213.412 578.951 C 1208.964 583.103, 1201.147 590.100, 1196.042 594.500 C 1190.936 598.900, 1183.717 605.200, 1180 608.500 C 1173.822 613.985, 1164.258 622.316, 1149.003 635.500 C 1135.270 647.369, 1123.323 657.898, 1117.543 663.226 C 1114.127 666.375, 1110.019 669.943, 1108.416 671.156 C 1106.812 672.368, 1102.287 676.317, 1098.359 679.930 C 1094.432 683.544, 1087.123 690.100, 1082.116 694.500 C 1077.109 698.900, 1069.943 705.295, 1066.191 708.711 C 1062.439 712.127, 1058.049 715.922, 1056.435 717.144 C 1054.821 718.367, 1050.784 721.872, 1047.465 724.933 C 1044.146 727.995, 1032.457 738.375, 1021.489 748 C 1010.521 757.625, 998.358 768.425, 994.459 772 C 990.561 775.575, 982.257 783, 976.006 788.500 C 969.755 794, 961.669 801.200, 958.036 804.500 C 954.403 807.800, 949.094 812.300, 946.238 814.500 C 943.383 816.700, 941.149 819.092, 941.273 819.815 C 941.457 820.880, 949.820 821.112, 985.262 821.036 C 1009.331 820.984, 1030.078 820.541, 1031.366 820.051 C 1033.462 819.254, 1039.030 814.507, 1054.354 800.452 C 1057.023 798.003, 1059.447 796, 1059.741 796 C 1060.453 796, 1080.572 778.459, 1085 773.978 C 1086.925 772.030, 1090.075 769.359, 1092 768.042 C 1093.925 766.726, 1098.026 763.365, 1101.114 760.574 C 1104.202 757.783, 1110.011 752.800, 1114.023 749.500 C 1118.034 746.200, 1123.517 741.362, 1126.206 738.750 C 1128.895 736.138, 1131.436 734, 1131.852 734 C 1132.269 734, 1135.412 731.300, 1138.837 728 C 1142.262 724.700, 1145.388 721.993, 1145.782 721.984 C 1146.177 721.976, 1148.525 720.144, 1151 717.914 C 1153.475 715.685, 1157.635 712.125, 1160.245 710.005 C 1165.969 705.355, 1179.051 693.741, 1183.624 689.250 C 1185.444 687.462, 1187.353 686, 1187.866 686 C 1188.379 686, 1192.863 682.288, 1197.829 677.750 C 1206.742 669.607, 1214.940 662.496, 1228.376 651.254 C 1232.158 648.089, 1237.823 643.250, 1240.965 640.500 C 1249.395 633.121, 1250.891 632, 1252.308 632 C 1253.016 632, 1255.352 633.800, 1257.500 636 C 1259.648 638.200, 1261.756 640, 1262.183 640 C 1262.610 640, 1265.782 642.698, 1269.230 645.995 C 1272.679 649.292, 1275.834 651.992, 1276.242 651.995 C 1276.650 651.998, 1280.250 655.144, 1284.242 658.987 C 1288.234 662.830, 1291.771 665.980, 1292.101 665.987 C 1292.432 665.994, 1295.582 668.691, 1299.101 671.979 C 1302.621 675.267, 1305.779 677.967, 1306.121 677.979 C 1306.463 677.991, 1309.613 680.693, 1313.121 683.985 C 1316.629 687.277, 1319.829 689.977, 1320.230 689.985 C 1320.632 689.993, 1323.782 692.698, 1327.230 695.995 C 1330.679 699.292, 1333.821 701.992, 1334.214 701.995 C 1334.607 701.998, 1338.205 705.150, 1342.211 709 C 1346.217 712.850, 1349.824 716, 1350.227 716 C 1350.630 716, 1353.782 718.698, 1357.230 721.995 C 1360.679 725.292, 1363.823 727.992, 1364.218 727.995 C 1364.612 727.998, 1367.738 730.700, 1371.163 734 C 1374.588 737.300, 1377.660 740, 1377.988 740 C 1378.317 740, 1381.922 743.150, 1386 747 C 1390.078 750.850, 1393.996 754, 1394.707 754 C 1395.418 754, 1396 754.689, 1396 755.531 C 1396 756.374, 1396.742 757.347, 1397.648 757.695 C 1398.555 758.043, 1401.578 760.504, 1404.367 763.164 C 1407.156 765.824, 1410.014 768, 1410.719 768 C 1411.423 768, 1412 768.689, 1412 769.531 C 1412 770.374, 1412.742 771.347, 1413.648 771.695 C 1414.555 772.043, 1417.578 774.504, 1420.367 777.164 C 1423.156 779.824, 1425.773 782, 1426.183 782 C 1426.593 782, 1430.174 785.150, 1434.140 789 C 1438.106 792.850, 1441.709 796, 1442.146 796 C 1442.583 796, 1446.666 799.596, 1451.220 803.991 C 1455.774 808.386, 1459.837 811.986, 1460.248 811.991 C 1460.659 811.996, 1462.907 813.800, 1465.243 816.001 C 1467.579 818.201, 1470.843 820.243, 1472.495 820.538 C 1474.148 820.833, 1495.525 820.945, 1520 820.787 C 1552.626 820.577, 1564.500 820.194, 1564.500 819.353 C 1564.500 818.261, 1549.202 804, 1548.030 804 C 1547.722 804, 1544.632 801.300, 1541.164 798 C 1537.696 794.700, 1534.553 791.998, 1534.179 791.995 C 1533.806 791.992, 1530.150 788.842, 1526.056 784.995 C 1521.962 781.148, 1518.362 777.998, 1518.056 777.995 C 1517.750 777.992, 1513.675 774.394, 1509 770 C 1504.325 765.606, 1500.268 762.008, 1499.985 762.005 C 1499.701 762.002, 1496.632 759.300, 1493.164 756 C 1489.696 752.700, 1486.553 749.998, 1486.179 749.996 C 1485.806 749.993, 1481.753 746.393, 1477.173 741.996 C 1472.593 737.598, 1468.543 733.998, 1468.173 733.995 C 1467.803 733.992, 1463.675 730.394, 1459 726 C 1454.325 721.606, 1450.267 718.008, 1449.982 718.005 C 1449.697 718.002, 1446.555 715.300, 1443 712 C 1439.445 708.700, 1436.302 706, 1436.017 706 C 1435.731 706, 1432.187 702.850, 1428.141 699 C 1424.096 695.150, 1420.496 691.998, 1420.143 691.995 C 1419.789 691.992, 1416.150 688.842, 1412.056 684.995 C 1407.962 681.148, 1404.361 678, 1404.053 678 C 1403.746 678, 1400.217 674.850, 1396.211 671 C 1392.205 667.150, 1388.600 664, 1388.199 664 C 1387.798 664, 1384.632 661.300, 1381.164 658 C 1377.696 654.700, 1374.466 652, 1373.986 652 C 1373.506 652, 1370.785 649.539, 1367.940 646.531 C 1365.095 643.522, 1361.976 640.810, 1361.008 640.503 C 1360.040 640.195, 1355.930 636.584, 1351.874 632.477 C 1347.818 628.370, 1343.825 624.783, 1343 624.507 C 1342.175 624.231, 1338.150 620.854, 1334.056 617.002 C 1329.962 613.151, 1326.355 610, 1326.041 610 C 1325.727 610, 1322.632 607.300, 1319.164 604 C 1315.696 600.700, 1312.499 598, 1312.059 598 C 1311.619 598, 1308.839 595.621, 1305.880 592.713 C 1302.921 589.805, 1298.271 585.650, 1295.546 583.479 C 1292.821 581.308, 1288.811 577.837, 1286.633 575.766 C 1284.456 573.695, 1282.382 572, 1282.024 572 C 1281.667 572, 1278.615 569.300, 1275.243 566 C 1271.870 562.700, 1268.694 560, 1268.185 560 C 1267.676 560, 1264.839 557.600, 1261.880 554.666 C 1256.796 549.626, 1252.200 545.967, 1251.027 546.027 C 1250.737 546.042, 1248.700 547.660, 1246.500 549.622 M 483.922 1027.494 C 483.879 1027.497, 483.674 1096.047, 483.465 1179.827 C 483.257 1263.606, 482.823 1332.983, 482.501 1333.996 C 482.110 1335.230, 482.508 1336.026, 483.708 1336.407 C 486.553 1337.308, 758.592 1337.725, 778 1336.858 C 787.625 1336.427, 798.650 1335.592, 802.500 1335 C 819.489 1332.392, 822.980 1331.764, 831 1329.880 C 835.675 1328.782, 840.281 1327.460, 841.236 1326.942 C 842.191 1326.424, 843.852 1326, 844.927 1326 C 846.002 1326, 847.160 1325.550, 847.500 1325 C 847.840 1324.450, 849.190 1324, 850.500 1324 C 851.810 1324, 853.160 1323.550, 853.500 1323 C 853.840 1322.450, 855.190 1322, 856.500 1322 C 857.810 1322, 859.160 1321.550, 859.500 1321 C 859.840 1320.450, 860.978 1320, 862.029 1320 C 863.079 1320, 865.542 1319.100, 867.500 1318 C 869.458 1316.900, 871.722 1316, 872.530 1316 C 873.339 1316, 874 1315.606, 874 1315.125 C 874 1314.644, 875.296 1313.991, 876.879 1313.674 C 878.463 1313.357, 880.456 1312.401, 881.308 1311.549 C 882.160 1310.697, 883.564 1310, 884.429 1310 C 885.293 1310, 886 1309.550, 886 1309 C 886 1308.450, 886.900 1308, 888 1308 C 889.100 1308, 890 1307.550, 890 1307 C 890 1306.450, 890.900 1306, 892 1306 C 893.100 1306, 894 1305.550, 894 1305 C 894 1304.450, 894.590 1304, 895.311 1304 C 896.033 1304, 897.495 1303.213, 898.561 1302.250 C 899.628 1301.287, 901.737 1299.861, 903.250 1299.081 C 904.763 1298.301, 906 1297.288, 906 1296.831 C 906 1296.374, 906.590 1296, 907.311 1296 C 908.033 1296, 909.516 1295.168, 910.607 1294.151 C 911.698 1293.135, 913.150 1292.117, 913.833 1291.889 C 917.250 1290.750, 946 1263.818, 946 1261.756 C 946 1261.346, 948.250 1258.712, 951 1255.904 C 953.750 1253.095, 956 1250.168, 956 1249.399 C 956 1248.629, 956.460 1248, 957.021 1248 C 957.583 1248, 958.593 1246.763, 959.264 1245.250 C 959.936 1243.737, 961.276 1241.628, 962.243 1240.561 C 963.209 1239.495, 964 1238.033, 964 1237.311 C 964 1236.590, 964.387 1236, 964.861 1236 C 965.998 1236, 978.014 1212.005, 978.006 1209.750 C 978.003 1208.787, 978.450 1208, 979 1208 C 979.550 1208, 980 1207.127, 980 1206.059 C 980 1204.991, 980.450 1203.840, 981 1203.500 C 981.550 1203.160, 982 1201.810, 982 1200.500 C 982 1199.190, 982.450 1197.840, 983 1197.500 C 983.550 1197.160, 984 1196.002, 984 1194.927 C 984 1193.852, 984.424 1192.191, 984.942 1191.236 C 986.557 1188.258, 990.729 1169.100, 992.506 1156.500 C 994.003 1145.880, 994.996 1107.654, 994.761 1069.655 L 994.500 1027.542 918 1027.521 L 841.500 1027.500 841.260 1068.122 C 841.024 1107.934, 840.296 1121.982, 838.001 1131 C 837.371 1133.475, 836.614 1136.963, 836.318 1138.750 C 836.023 1140.537, 835.380 1142, 834.891 1142 C 834.401 1142, 834 1142.668, 834 1143.484 C 834 1145.752, 828.892 1155.798, 824.330 1162.500 C 820.418 1168.250, 813.061 1175.680, 806.015 1181 C 801.373 1184.505, 788.075 1191.350, 782.866 1192.916 C 780.465 1193.637, 777.600 1194.591, 776.500 1195.035 C 771.323 1197.123, 760.326 1197.496, 704 1197.498 L 643.500 1197.500 643 1112.607 L 642.500 1027.714 563.250 1027.601 C 519.663 1027.539, 483.965 1027.491, 483.922 1027.494" stroke="none" fill="#ec0414" fill-rule="evenodd"/></svg>